<?xml version="1.0" standalone="no"?>
<!DOCTYPE svg PUBLIC "-//W3C//DTD SVG 20010904//EN"
 "http://www.w3.org/TR/2001/REC-SVG-20010904/DTD/svg10.dtd">
<svg version="1.0" xmlns="http://www.w3.org/2000/svg"
 width="512.000000pt" height="512.000000pt" viewBox="0 0 512.000000 512.000000"
 preserveAspectRatio="xMidYMid meet">
<metadata>
Created by potrace 1.14, written by Peter Selinger 2001-2017
</metadata>
<g transform="translate(0.000000,512.000000) scale(0.100000,-0.100000)"
fill="#000000" stroke="none">
<path d="M0 2927 l0 -2194 63 31 c41 21 90 60 145 114 45 45 88 82 96 82 12 0
98 72 139 117 11 13 27 23 34 23 7 0 13 3 13 8 0 4 15 17 33 28 130 86 160
104 171 104 21 0 96 70 96 90 0 34 55 84 163 148 87 52 112 62 150 62 33 0 47
5 51 17 11 27 22 3 35 -72 19 -107 91 -353 170 -575 22 -63 16 -74 -46 -86
-18 -3 -33 -10 -33 -14 0 -12 -56 -32 -77 -28 -16 3 -19 22 -29 186 -9 144
-15 186 -28 200 -18 20 -22 52 -6 52 13 0 13 77 0 85 -9 6 -41 -8 -134 -58
-28 -16 -65 -27 -87 -27 -44 0 -102 -40 -189 -130 -30 -31 -84 -72 -118 -90
-59 -31 -224 -173 -297 -255 -16 -19 -57 -48 -90 -66 -35 -18 -90 -62 -132
-105 -40 -41 -77 -74 -83 -74 -5 0 -10 -23 -10 -50 0 -48 1 -50 20 -40 11 6
25 8 30 5 11 -7 44 22 53 48 6 15 10 16 28 7 18 -10 26 -6 62 29 22 23 45 41
49 41 5 0 6 15 3 33 -6 31 -3 35 129 145 74 61 140 112 146 112 13 0 38 -55
89 -191 21 -59 58 -136 82 -170 62 -91 205 -378 214 -427 l7 -42 120 0 c109 0
119 2 114 18 -3 9 -12 44 -21 77 -21 73 -118 260 -195 375 -71 105 -72 106
-115 227 -20 54 -54 135 -77 180 l-41 83 48 42 c27 24 55 43 63 43 22 0 74
-101 139 -265 68 -175 97 -233 162 -325 95 -133 144 -226 167 -315 30 -113 41
-140 57 -140 12 0 12 10 0 67 -9 38 -24 92 -34 122 -22 60 -110 215 -163 284
-56 74 -90 140 -162 317 -36 91 -79 191 -95 222 -16 32 -29 64 -29 72 0 22 63
54 123 61 66 8 71 3 112 -115 15 -41 40 -113 56 -159 16 -47 29 -93 29 -102 0
-10 12 -26 27 -37 16 -11 41 -46 57 -78 39 -77 88 -151 164 -248 75 -93 97
-135 118 -219 8 -34 25 -90 37 -124 l22 -63 56 0 57 0 -33 128 c-38 149 -70
210 -184 352 -75 93 -161 243 -161 280 0 12 14 21 46 30 45 13 47 12 65 -11
10 -13 37 -62 60 -109 46 -95 89 -159 162 -239 76 -85 106 -155 155 -363 l15
-68 60 0 c57 0 59 1 53 23 -4 12 -18 72 -31 132 -31 136 -58 191 -137 286 -35
41 -75 90 -89 109 -59 78 -137 266 -124 297 6 16 10 14 36 -17 16 -19 29 -40
29 -48 0 -17 87 -13 115 5 11 7 25 13 31 13 17 0 127 -251 115 -263 -7 -7 -15
-6 -24 2 -8 6 -21 9 -29 6 -8 -3 -34 0 -56 8 l-42 15 18 -30 c28 -48 119 -142
124 -128 3 10 11 10 42 0 20 -6 48 -9 62 -6 31 8 68 -16 84 -55 7 -16 11 -32
8 -34 -2 -3 -30 -7 -62 -9 -70 -5 -80 -13 -69 -57 8 -29 13 -34 44 -35 19 -1
38 1 44 4 8 5 34 6 64 3 5 -1 12 -13 15 -29 30 -131 52 -192 68 -192 22 0 22
1 2 48 -9 20 -24 83 -34 140 -24 132 -43 170 -140 276 -46 51 -90 110 -105
144 -44 95 -87 211 -83 226 2 11 42 -6 153 -69 83 -46 164 -97 181 -113 17
-16 43 -60 59 -98 32 -78 54 -106 108 -141 47 -30 64 -67 83 -185 10 -60 26
-111 49 -158 34 -67 37 -70 71 -70 31 0 35 3 34 23 -4 39 0 47 20 47 24 0 26
20 4 67 -11 22 -22 32 -31 29 -8 -4 -19 -6 -24 -6 -6 0 -7 -5 -4 -10 3 -6 2
-10 -4 -10 -16 0 -41 56 -41 92 0 28 5 35 30 45 32 12 43 53 14 53 -8 0 -12
-4 -9 -10 11 -18 -5 -11 -35 17 -39 34 -38 43 6 43 53 0 33 15 -59 45 l-84 26
-25 55 c-14 30 -23 54 -19 54 3 0 20 -8 36 -18 17 -10 42 -23 57 -30 26 -11
27 -10 16 8 -7 10 -9 22 -5 26 13 14 64 -18 127 -81 36 -35 74 -65 85 -65 11
-1 43 -7 70 -14 56 -15 53 -8 76 -156 6 -41 15 -91 20 -110 5 -19 9 -54 9 -77
l0 -43 40 0 c22 0 40 1 40 3 0 9 -21 168 -26 197 -4 19 -8 64 -9 100 -2 36 -1
52 2 35 3 -16 10 -36 16 -44 16 -18 35 -72 57 -161 25 -97 39 -130 56 -130 11
0 12 5 5 17 -6 10 -17 44 -26 76 -8 31 -20 57 -25 57 -5 0 -7 6 -4 14 3 8 -1
34 -10 59 -15 45 -12 187 4 187 10 0 20 -26 20 -52 0 -24 26 -52 40 -43 5 3
10 38 10 76 0 73 11 109 34 109 14 0 36 -69 36 -110 0 -25 48 -110 62 -110 5
0 6 -5 2 -11 -4 -8 0 -8 15 0 20 11 21 9 22 -36 1 -40 2 -43 8 -18 l6 30 12
-30 c7 -16 17 -50 23 -75 7 -25 21 -66 33 -92 l22 -48 56 0 56 0 -64 178 c-74
201 -77 214 -92 336 -15 128 13 208 49 140 12 -21 19 -25 44 -20 17 4 33 11
37 18 13 20 38 0 48 -39 6 -21 17 -83 25 -138 8 -55 27 -133 41 -172 14 -40
25 -80 25 -89 0 -8 19 -60 43 -115 l42 -99 73 0 c39 0 72 2 72 5 0 3 -18 42
-40 86 -58 115 -107 272 -125 402 -28 200 -33 225 -69 308 -20 46 -34 84 -32
86 4 4 71 -117 94 -171 7 -15 21 -92 32 -170 22 -160 73 -327 142 -464 41 -81
42 -82 80 -82 24 0 38 5 38 13 0 6 -16 41 -36 77 -61 112 -130 328 -148 470
-22 169 -32 205 -65 254 -39 56 -63 105 -72 144 -6 27 -4 32 12 32 11 0 30
-16 44 -37 14 -21 41 -60 60 -88 60 -87 72 -117 79 -200 14 -168 99 -457 166
-562 16 -25 32 -58 35 -74 6 -27 10 -29 51 -29 43 0 44 1 38 27 -3 16 -19 55
-36 88 -30 59 -96 212 -125 290 -20 54 -44 191 -52 295 -7 92 -19 121 -82 206
-46 60 -58 104 -35 127 18 17 21 78 6 107 -8 15 -6 17 10 13 14 -4 20 0 20 11
0 9 -7 16 -15 16 -8 0 -15 7 -15 15 0 18 12 19 28 3 17 -17 15 -1 -7 71 -10
34 -17 61 -14 61 2 0 35 -28 73 -62 72 -64 82 -81 99 -166 7 -35 32 -85 72
-150 77 -121 89 -149 89 -210 0 -26 7 -75 16 -107 12 -46 14 -83 9 -157 -6
-87 -5 -102 13 -137 11 -21 30 -70 42 -107 11 -38 33 -87 47 -109 15 -22 32
-58 38 -80 11 -37 15 -40 53 -43 l42 -3 -31 67 c-17 39 -34 99 -39 141 -5 40
-19 92 -31 115 -18 35 -20 52 -15 102 4 34 10 84 13 111 3 31 -1 74 -11 111
-9 34 -16 83 -16 108 0 50 -17 100 -54 156 -63 96 -186 303 -186 312 0 10 52
-8 90 -31 19 -11 42 -21 51 -21 28 0 118 -73 135 -110 9 -19 29 -48 44 -65 29
-33 79 -120 100 -175 19 -52 29 -136 39 -325 10 -184 24 -327 40 -396 5 -24
12 -56 16 -72 4 -22 11 -27 36 -27 l30 0 -7 57 c-6 51 -5 56 8 45 9 -7 21 -33
27 -57 l11 -45 300 0 300 0 0 2560 0 2560 -2560 0 -2560 0 0 -2193z m2740 842
c0 -6 9 -8 21 -4 14 5 19 3 15 -3 -3 -6 2 -8 13 -5 13 3 21 -1 24 -14 4 -15 5
-14 6 5 0 12 5 22 11 22 5 0 7 -6 4 -13 -2 -7 4 -22 16 -32 11 -10 20 -23 20
-29 0 -6 11 -28 25 -49 14 -20 23 -42 20 -47 -4 -6 0 -13 8 -16 9 -3 13 -13
10 -24 -4 -13 1 -19 18 -22 15 -2 25 -12 29 -27 3 -14 11 -26 18 -29 8 -2 10
2 5 14 -5 14 -2 13 16 -5 12 -12 19 -26 16 -31 -3 -5 0 -7 8 -4 21 8 30 -12
17 -36 -9 -18 -63 -53 -82 -55 -4 0 -14 -10 -23 -21 -13 -19 -13 -23 0 -28 8
-3 15 -10 15 -17 0 -6 -7 -9 -15 -6 -9 4 -23 -6 -36 -24 -22 -32 -22 -32 1
-144 9 -44 12 -90 8 -160 0 -11 -5 -26 -11 -33 -8 -10 -7 -16 2 -22 9 -5 10
-10 2 -14 -15 -10 -33 3 -27 20 3 7 1 16 -3 19 -21 12 -55 203 -40 221 7 8 7
14 -1 19 -5 3 -10 19 -10 36 0 16 -4 29 -9 29 -5 0 -13 10 -17 23 -4 12 -19
36 -34 53 -21 24 -31 29 -44 22 -12 -7 -25 0 -53 29 -20 21 -34 31 -30 22 5
-16 -9 -39 -25 -39 -13 0 -9 28 5 33 6 3 1 6 -13 8 -14 1 -36 3 -50 5 -49 7
-135 15 -158 16 -13 0 -30 11 -38 23 -14 21 -14 26 1 49 10 14 24 26 32 26 9
0 13 6 10 14 -6 15 16 40 26 30 10 -10 57 28 57 47 0 21 48 57 58 43 4 -5 21
-10 37 -11 22 -2 26 0 15 7 -8 5 -23 10 -32 10 -35 0 -33 44 3 53 26 7 24 27
-3 27 -22 0 -22 0 2 18 16 10 45 17 77 18 29 0 56 4 60 7 10 11 23 8 23 -4z
m-324 -494 c28 -11 35 -19 32 -37 -3 -20 -9 -23 -61 -26 -60 -3 -59 -4 -71 51
-6 25 -4 27 29 27 20 0 52 -7 71 -15z m884 -48 c0 -3 -11 -7 -25 -9 -19 -4
-25 -1 -25 13 0 22 21 30 37 13 7 -7 13 -15 13 -17z m-926 -66 c7 -11 -22 -23
-36 -15 -6 4 -5 10 3 15 18 11 26 11 33 0z m951 -1 c-3 -5 -20 -10 -36 -10
-18 0 -28 4 -24 10 3 6 20 10 36 10 18 0 28 -4 24 -10z m95 -106 c0 -27 -26
-44 -66 -44 l-27 0 20 23 c11 12 26 32 32 45 10 19 15 21 27 11 8 -6 14 -22
14 -35z m-917 3 c18 -21 18 -21 -15 -33 -18 -7 -46 -13 -62 -13 -24 -1 -27 -3
-16 -16 11 -13 6 -15 -35 -15 l-47 0 31 26 c17 14 31 30 31 35 0 5 8 18 17 29
22 25 69 19 96 -13z m705 -15 c2 -7 -3 -12 -12 -12 -9 0 -16 7 -16 16 0 17 22
14 28 -4z m-555 -35 c-9 -16 -24 9 -17 28 7 18 8 18 14 -1 4 -10 5 -23 3 -27z
m564 -13 c-3 -3 -12 -4 -19 -1 -8 3 -5 6 6 6 11 1 17 -2 13 -5z m-903 -141
c10 -10 96 -12 138 -3 27 6 40 4 52 -8 9 -9 31 -16 52 -15 36 1 36 1 30 -33
-4 -18 -2 -51 4 -73 9 -33 7 -48 -11 -93 -26 -65 -29 -150 -5 -173 17 -17 17
-18 21 -50 1 -11 5 -34 9 -52 7 -29 5 -33 -18 -39 -14 -3 -26 -10 -26 -14 0
-5 -9 -6 -20 -3 -11 3 -20 1 -20 -5 0 -17 -44 -23 -55 -8 -6 8 -20 16 -30 18
-11 1 -26 11 -33 21 -7 9 -20 17 -28 17 -11 0 -13 6 -9 20 5 14 2 20 -9 20 -9
0 -16 -6 -17 -12 0 -7 -5 2 -10 20 -7 22 -16 32 -29 32 -11 0 -20 7 -20 15 0
8 -7 15 -15 15 -8 0 -15 5 -15 10 0 6 7 10 16 8 10 -2 19 3 22 11 3 10 -2 12
-21 8 -34 -9 -51 14 -44 57 3 22 1 37 -6 40 -9 3 -8 8 3 15 13 9 13 11 -2 11
-14 0 -18 9 -18 40 0 22 -4 40 -10 40 -5 0 -10 9 -10 20 0 11 -4 20 -9 20 -4
0 -3 16 3 35 6 19 14 35 18 35 3 0 4 9 1 20 -6 22 12 28 20 8 3 -8 6 -7 6 4 1
16 20 24 67 27 11 0 24 -2 28 -6z m606 -99 c0 -8 -5 -12 -10 -9 -6 4 -8 11 -5
16 9 14 15 11 15 -7z m33 -39 c20 8 57 -11 57 -31 0 -8 11 -19 25 -24 33 -13
41 -35 25 -68 -8 -15 -12 -34 -11 -43 1 -10 -13 -22 -38 -33 -38 -18 -39 -18
-70 5 -17 12 -31 30 -31 40 0 9 -10 19 -23 21 -29 6 -47 0 -47 -16 0 -18 -47
-39 -56 -25 -3 6 -12 8 -20 5 -9 -3 -19 4 -26 19 -13 29 -10 34 23 37 13 2 27
7 30 11 3 4 16 9 29 10 12 1 29 12 37 24 8 13 19 21 23 18 5 -3 11 4 15 15 3
11 11 20 16 20 5 0 9 8 9 18 0 12 2 14 8 4 5 -7 16 -10 25 -7z m-766 -67 c-3
-7 -5 -2 -5 12 0 14 2 19 5 13 2 -7 2 -19 0 -25z m0 -60 c-3 -7 -5 -2 -5 12 0
14 2 19 5 13 2 -7 2 -19 0 -25z m10 -60 c-3 -8 -6 -5 -6 6 -1 11 2 17 5 13 3
-3 4 -12 1 -19z m683 -144 c0 -13 11 -18 36 -15 6 1 17 -5 23 -13 7 -8 21 -12
33 -8 13 3 19 1 15 -5 -4 -6 0 -19 8 -29 17 -23 19 -34 5 -34 -5 0 -10 7 -10
16 0 14 -3 14 -15 4 -13 -11 -18 -10 -28 4 -12 16 -14 16 -46 0 -29 -14 -38
-15 -72 -4 -27 9 -36 16 -27 22 9 5 6 8 -10 8 -13 0 -20 -4 -17 -10 3 -5 -1
-10 -9 -10 -9 0 -16 7 -16 15 0 8 4 15 10 15 12 0 45 26 73 57 15 17 24 20 34
12 7 -6 13 -18 13 -25z m188 -43 c11 -6 10 -10 -4 -15 -15 -6 -16 -9 -4 -16
17 -11 13 -15 -20 -24 -20 -6 -22 -5 -10 4 10 8 11 13 4 16 -15 6 -6 44 10 44
6 0 17 -4 24 -9z m-398 -32 c0 -6 -4 -7 -10 -4 -5 3 -10 11 -10 16 0 6 5 7 10
4 6 -3 10 -11 10 -16z m285 -61 c64 -12 73 -20 57 -46 -7 -10 -15 -9 -40 4
-19 9 -62 16 -102 17 -72 2 -87 11 -47 27 31 12 58 12 132 -2z m-35 -51 c0
-12 -31 -15 -80 -7 -3 0 2 5 10 10 23 15 70 12 70 -3z m-1382 -142 c23 -26 65
-105 77 -145 4 -14 24 -61 44 -105 56 -121 62 -133 57 -110 -21 94 -21 94 48
0 91 -123 219 -323 268 -420 22 -44 43 -82 47 -85 3 -3 19 -22 34 -42 24 -33
26 -38 10 -38 -28 -1 -116 -47 -101 -54 7 -3 0 -3 -15 1 -18 3 -46 -2 -75 -15
-53 -22 -162 -55 -167 -50 -2 2 -40 104 -85 228 -45 124 -101 279 -125 345
-97 263 -157 478 -141 503 3 5 27 9 54 10 41 1 53 -4 70 -23z m1543 -26 c37 2
70 -21 49 -34 -6 -3 -8 -11 -4 -16 8 -14 -35 -59 -57 -59 -9 0 -19 -5 -21 -12
-3 -8 -25 -12 -64 -11 -46 1 -62 6 -75 22 -10 12 -21 21 -26 21 -5 0 -24 16
-43 35 -19 19 -41 35 -48 35 -7 0 -10 5 -7 10 4 7 11 8 18 2 7 -5 27 -13 45
-17 28 -6 32 -4 32 14 0 20 4 21 83 15 45 -3 98 -5 118 -5z m-1767 -399 c21
-78 62 -202 151 -450 37 -102 71 -202 77 -222 8 -30 15 -38 33 -38 13 0 25 4
27 9 2 5 17 12 33 16 21 4 13 -3 -27 -24 -59 -30 -185 -58 -198 -44 -4 4 -30
78 -58 163 -154 474 -168 562 -110 692 l32 72 12 -55 c6 -30 19 -83 28 -119z
m1571 81 c-3 -6 9 -7 30 -4 23 4 35 2 35 -6 0 -6 -17 -11 -41 -11 -24 0 -38
-4 -34 -10 7 -11 -18 -14 -28 -4 -10 10 12 44 29 44 8 0 13 -4 9 -9z m535
-162 c40 -60 77 -112 80 -114 4 -2 4 10 2 27 -4 27 -3 29 15 20 39 -21 101
-100 122 -156 23 -63 27 -91 10 -80 -6 3 -15 0 -20 -7 -6 -11 -11 -11 -21 -1
-6 6 -27 12 -45 12 -23 0 -33 5 -33 16 0 20 -139 285 -181 346 -20 27 -24 48
-11 48 4 0 41 -50 82 -111z m-42 -86 c63 -99 118 -195 137 -240 16 -37 21
-123 8 -123 -5 0 -16 26 -26 56 -10 31 -53 120 -96 198 -44 77 -82 151 -86
164 -13 44 13 21 63 -55z m363 -105 c93 -39 114 -58 66 -58 -12 0 -38 9 -57
19 -19 11 -54 29 -77 40 -24 11 -43 25 -43 31 0 15 3 14 111 -32z m-416 -114
c25 -42 44 -78 42 -81 -3 -2 -18 10 -35 26 -16 17 -42 33 -57 37 -25 6 -27 10
-21 43 3 20 6 42 6 49 0 23 18 3 65 -74z m-35 -94 c4 0 19 -12 33 -26 14 -14
38 -29 54 -33 26 -7 72 -68 73 -96 0 -11 -69 -89 -75 -84 -12 13 -88 175 -105
225 -23 70 -26 105 -3 52 8 -21 19 -38 23 -38z m-1000 -47 c-14 -3 -28 -10
-31 -15 -4 -6 -23 -7 -50 -2 l-44 8 50 7 c28 3 61 6 75 6 l25 0 -25 -4z m67 1
c-3 -3 -12 -4 -19 -1 -8 3 -5 6 6 6 11 1 17 -2 13 -5z m120 -109 c32 -58 39
-106 16 -123 -10 -7 -30 -11 -44 -8 -14 3 -36 2 -48 -1 -22 -5 -21 -6 6 -24
67 -43 73 -52 87 -132 7 -42 10 -77 6 -77 -4 0 -39 34 -78 74 -66 70 -71 77
-65 110 6 40 -8 47 -38 20 -16 -14 -18 -14 -28 4 -9 17 -8 22 8 27 11 3 27 17
36 32 14 21 15 29 4 49 -7 13 -18 24 -26 24 -7 0 -13 4 -13 8 0 15 24 32 46
32 12 0 37 7 55 15 44 18 50 16 76 -30z m-353 5 c32 -17 67 -30 77 -30 25 0
32 -15 14 -30 -18 -15 -20 -61 -3 -78 9 -9 6 -12 -13 -12 -35 0 -40 -8 -21
-30 70 -75 126 -130 134 -130 11 0 98 -82 98 -93 0 -4 -11 0 -24 8 -13 9 -34
18 -46 20 -53 10 -120 53 -182 119 -52 53 -65 73 -57 83 6 7 16 10 23 6 7 -4
8 -3 1 4 -5 5 -35 20 -67 32 -31 13 -70 35 -86 50 l-30 26 38 23 c21 12 46 19
55 16 13 -5 15 -2 9 20 -8 34 5 34 80 -4z m1071 -61 c4 -19 16 -34 31 -39 28
-11 30 -22 9 -40 -8 -7 -15 -29 -15 -49 0 -43 -6 -54 -41 -72 -15 -8 -63 -48
-107 -90 -67 -62 -79 -78 -69 -89 10 -12 9 -12 -5 -1 -18 14 -40 -1 -116 -77
-11 -11 -25 -21 -31 -23 -6 -2 -18 -22 -26 -44 -14 -42 -17 -43 -72 -20 -27
11 -33 20 -33 43 0 16 -3 44 -6 61 -9 44 6 38 46 -19 19 -27 39 -48 44 -46 14
3 50 78 91 186 45 120 92 192 185 280 82 78 105 86 115 39z m1335 -419 c21
-52 45 -133 54 -180 9 -47 21 -104 26 -128 6 -23 9 -68 9 -100 l-2 -57 -9 65
c-14 104 -58 256 -111 385 -27 66 -53 124 -58 130 -5 5 -9 32 -8 59 l0 51 31
-65 c16 -36 47 -108 68 -160z m-1400 -217 c0 -13 -3 -13 -15 -3 -8 7 -15 16
-15 21 0 5 7 6 15 3 8 -4 15 -13 15 -21z m1340 -21 c5 -20 10 -48 10 -62 l-1
-25 -19 24 c-13 15 -20 38 -20 68 0 52 15 49 30 -5z"/>
<path d="M2836 3711 c-4 -6 2 -21 13 -33 24 -25 27 -15 7 21 -8 15 -16 20 -20
12z"/>
<path d="M2518 3593 c7 -3 16 -2 19 1 4 3 -2 6 -13 5 -11 0 -14 -3 -6 -6z"/>
<path d="M2961 3504 c0 -11 3 -14 6 -6 3 7 2 16 -1 19 -3 4 -6 -2 -5 -13z"/>
<path d="M3710 1140 c0 -12 41 -92 91 -178 91 -156 91 -156 99 -242 3 -48 11
-93 16 -101 4 -8 11 -61 14 -119 5 -98 8 -108 38 -149 18 -24 39 -65 46 -90 8
-25 33 -88 55 -139 23 -51 41 -99 41 -107 0 -8 5 -15 11 -15 17 0 1 58 -35
130 -18 36 -41 90 -51 120 -10 30 -32 75 -49 99 -30 41 -31 48 -29 130 2 53
-3 103 -11 131 -8 25 -17 78 -20 118 -7 83 -12 94 -107 247 -37 61 -71 122
-74 137 -4 15 -13 32 -21 39 -11 9 -14 7 -14 -11z"/>
<path d="M460 1070 c0 -5 5 -10 11 -10 5 0 7 5 4 10 -3 6 -8 10 -11 10 -2 0
-4 -4 -4 -10z"/>
<path d="M4150 983 c0 -6 8 -17 18 -24 16 -13 16 -13 2 6 -8 11 -16 22 -17 24
-2 2 -3 0 -3 -6z"/>
<path d="M3765 875 c7 -33 12 -41 21 -33 3 4 -2 19 -11 35 l-16 28 6 -30z"/>
<path d="M95 760 c-3 -5 -1 -10 4 -10 6 0 11 5 11 10 0 6 -2 10 -4 10 -3 0 -8
-4 -11 -10z"/>
<path d="M43 717 c-24 -11 -43 -27 -43 -34 0 -9 13 -5 37 13 70 51 70 54 6 21z"/>
<path d="M160 380 c0 -5 7 -7 15 -4 8 4 15 8 15 10 0 2 -7 4 -15 4 -8 0 -15
-4 -15 -10z"/>
<path d="M130 360 c0 -5 5 -10 10 -10 6 0 10 5 10 10 0 6 -4 10 -10 10 -5 0
-10 -4 -10 -10z"/>
<path d="M150 147 c-13 -39 -29 -89 -36 -109 -12 -35 -12 -38 5 -38 13 0 24
17 40 62 12 35 28 77 36 95 12 28 12 33 -4 47 -16 15 -19 11 -41 -57z"/>
<path d="M320 10 c0 -5 5 -10 11 -10 5 0 7 5 4 10 -3 6 -8 10 -11 10 -2 0 -4
-4 -4 -10z"/>
</g>
</svg>
